<svg width="48" height="48" viewBox="0 0 48 48" fill="none" xmlns="http://www.w3.org/2000/svg">
<path d="M47 24C47 36.7026 36.7025 47 24 47C11.2974 47 0.999994 36.7025 0.999996 24C0.999998 11.2974 11.2975 1 24 1C36.7026 1.00001 47 11.2975 47 24Z" stroke="#0063BE" stroke-width="2"/>
<path d="M17.1227 25.1117C16.9253 24.8627 16.9712 24.5096 17.2237 24.3149C17.4762 24.1202 17.8342 24.1655 18.0316 24.4145L22.4937 30.056L32.5978 18.2024C32.8043 17.9625 33.1624 17.9308 33.4057 18.1345C33.649 18.3383 33.6812 18.6914 33.4746 18.9359L22.9344 31.3011C22.9069 31.3374 22.8702 31.3736 22.8289 31.4053C22.5764 31.6 22.2183 31.5547 22.0209 31.3057L17.1227 25.1117Z" fill="#0063BE" stroke="#0063BE"/>
</svg>
