<svg width="48" height="48" viewBox="0 0 48 48" fill="none" xmlns="http://www.w3.org/2000/svg">
<path d="M47 24C47 36.7026 36.7025 47 24 47C11.2974 47 0.999994 36.7025 0.999996 24C0.999998 11.2974 11.2975 1 24 1C36.7026 1.00001 47 11.2975 47 24Z" stroke="#0063BE" stroke-width="2"/>
<path d="M22.32 31.008H24.848V29.44C24.848 24.64 29.392 24.192 29.392 18.816C29.392 15.52 27.088 13.248 23.888 13.248C20.688 13.248 18.544 15.52 18.352 19.168H20.848C20.88 16.864 22.128 15.584 23.888 15.584C25.744 15.584 26.896 16.928 26.896 18.816C26.896 23.232 22.32 23.744 22.32 29.28V31.008ZM23.632 36.352C24.656 36.352 25.36 35.648 25.36 34.592C25.36 33.568 24.656 32.864 23.632 32.864C22.608 32.864 21.904 33.568 21.904 34.592C21.904 35.648 22.608 36.352 23.632 36.352Z" fill="#0063BE"/>
</svg>
