<svg width="178" height="82" viewBox="0 0 178 82" fill="none" xmlns="http://www.w3.org/2000/svg">
<path d="M19.5437 31.7941V49.939H12.6847V31.7651C12.6847 24.2018 9.20211 22.3686 6.02043 20.6938C3.34456 19.2852 0.881394 17.9886 0.881394 13.4897C0.881394 12.5354 1.08724 11.2174 1.29685 9.87572C1.51413 8.48488 1.73534 7.06856 1.73534 6.00546C1.81605 4.99078 1.70414 3.96934 1.40631 3.00065C1.10832 2.03197 0.63029 1.13543 0 0.363281H6.88647C7.5148 1.14106 7.98858 2.04378 8.27954 3.01794C8.57051 3.99211 8.67295 5.01789 8.58048 6.03447C8.58048 7.10749 8.35519 8.55951 8.13594 9.9716C7.92846 11.3081 7.72653 12.6089 7.72653 13.5187C7.72653 17.981 10.1742 19.2559 12.8416 20.6452C16.0352 22.3085 19.5437 24.1359 19.5437 31.7941Z" fill="white"/>
<path d="M32.655 49.9389V31.794C32.655 24.1357 29.1464 22.3083 25.953 20.645C23.2856 19.2557 20.838 17.9809 20.838 13.5185C20.838 12.6092 21.0363 11.3092 21.2402 9.97342L21.2407 9.97144C21.4563 8.55934 21.678 7.10733 21.678 6.0343C21.7587 5.01963 21.647 3.99818 21.349 3.0295C21.051 2.06082 20.573 1.16427 19.9427 0.392121H12.9874C13.6221 1.16182 14.1039 2.05766 14.4044 3.02674C14.7048 3.99582 14.8177 5.01848 14.7367 6.0343C14.7367 7.0974 14.5155 8.51373 14.2982 9.90457C14.0886 11.2463 13.8827 12.5642 13.8827 13.5185C13.8827 18.0175 16.3459 19.3141 19.0218 20.7226C22.2034 22.3975 25.686 24.2306 25.686 31.794V49.9389H32.655Z" fill="white"/>
<path d="M68.685 17.7679V14.9686H76.0397V11.7776H65.2418V27.0652H68.685V20.9298H74.0013V17.7679H68.685Z" fill="white"/>
<path fill-rule="evenodd" clip-rule="evenodd" d="M81.0668 21.8001H83.5321L85.9837 26.9926H89.8814L87.0167 21.1909C87.8572 20.8411 88.5698 20.2177 89.0505 19.4115C89.5311 18.6053 89.7548 17.6585 89.6885 16.7091C89.6885 13.228 87.4298 11.7776 84.262 11.7776H77.6786V27.0652H81.0668V21.8001ZM81.0668 18.8267V14.867H84.1657C85.5429 14.867 86.2315 15.5052 86.2315 16.7961C86.2315 18.087 85.5016 18.8267 84.1243 18.8267H81.0668Z" fill="white"/>
<path d="M102.442 11.7776H91.9749L91.9198 27.0652H102.938V23.9177H95.3905V20.5962H100.184V17.5068H95.3905V14.9251H102.442V11.7776Z" fill="white"/>
<path d="M103.93 25.1361C105.61 26.5707 107.717 27.3359 109.879 27.2972V27.2392C113.515 27.2392 115.774 25.6292 115.774 22.3368C115.774 19.4359 113.846 18.3626 110.637 17.5793C108.53 17.0572 107.882 16.6801 107.882 15.9839C107.882 15.2877 108.392 14.693 109.769 14.693C111.159 14.7166 112.501 15.2269 113.584 16.1434L115.554 13.5036C113.975 12.1383 111.976 11.4312 109.935 11.5165C106.684 11.5165 104.425 13.3151 104.425 16.2304C104.425 19.1458 106.175 20.1176 109.398 20.9008C111.697 21.4665 112.331 21.6551 112.331 22.6414C112.331 23.6276 111.642 24.0918 110.031 24.0918C108.535 24.0356 107.092 23.4936 105.899 22.5398L103.93 25.1361Z" fill="white"/>
<path d="M128.404 11.7196H117.95L117.895 27.0071H128.914V23.8597H121.38V20.5382H126.145V17.4488H121.38V14.867H128.404V11.7196Z" fill="white"/>
<path d="M134.189 27.0071V17.8114L140.4 27.0652H143.237V11.7776H139.932V20.4802L133.927 11.7776H130.842V27.0071H134.189Z" fill="white"/>
<path d="M149.628 11.7196H146.116V27.0652H149.628V11.7196Z" fill="white"/>
<path d="M152.217 20.4657C152.217 25.1796 154.779 27.2972 158.387 27.2972H158.484C162.134 27.2972 164.709 25.1651 164.709 20.4657V11.7631H161.225V20.4657C161.225 22.6559 160.288 24.0193 158.47 24.0193C156.652 24.0193 155.716 22.6268 155.716 20.4657V11.7631H152.217V20.4657Z" fill="white"/>
<path d="M166.224 25.1361C167.9 26.5686 170.002 27.3337 172.16 27.2972L172.091 27.2102C175.741 27.2102 178 25.6002 178 22.3077C178 19.4069 176.072 18.3336 172.863 17.5503C170.742 17.0282 170.108 16.6511 170.108 15.9549C170.108 15.2587 170.618 14.664 171.995 14.664C173.384 14.6876 174.727 15.1979 175.81 16.1144L177.78 13.4746C176.2 12.1117 174.201 11.4049 172.16 11.4875C168.841 11.4875 166.651 13.3441 166.651 16.2595C166.651 19.1748 168.318 20.1901 171.54 20.9008C173.841 21.4665 174.474 21.6551 174.474 22.6414C174.474 23.6276 173.785 24.0918 172.16 24.0918C170.665 24.031 169.223 23.4894 168.028 22.5398L166.224 25.1361Z" fill="white"/>
<path fill-rule="evenodd" clip-rule="evenodd" d="M95.1701 34.6943V49.9528H102.057C105.541 49.9528 107.428 48.1398 107.428 45.0069C107.465 44.2693 107.276 43.5388 106.889 42.9227C106.502 42.3066 105.938 41.8373 105.279 41.5839C105.794 41.3203 106.225 40.9069 106.523 40.3927C106.821 39.8785 106.973 39.2851 106.96 38.683C106.96 36.1447 105.39 34.6943 102.057 34.6943H95.1701ZM98.4756 40.496V37.5952H101.878C103.034 37.5952 103.516 38.1608 103.516 39.0456C103.516 39.9304 103.034 40.496 101.919 40.496H98.4756ZM98.4756 46.9504V43.3099H102.098C103.296 43.3099 103.943 43.9335 103.943 45.0504C103.958 45.309 103.92 45.568 103.831 45.8095C103.742 46.0511 103.605 46.2696 103.428 46.45C103.251 46.6305 103.04 46.7686 102.808 46.855C102.576 46.9413 102.329 46.9739 102.084 46.9504H98.4756Z" fill="white"/>
<path fill-rule="evenodd" clip-rule="evenodd" d="M83.7386 46.9795H88.9172L89.7437 49.9528H93.4898L88.1459 34.6943H84.5512L79.2075 49.8803H82.8985L83.7386 46.9795ZM88.0495 44.0786H84.6339L86.3555 38.2769L88.0495 44.0786Z" fill="white"/>
<path d="M113.433 34.6943H109.935V49.9528H113.433V34.6943Z" fill="white"/>
<path d="M70.8472 43.0488L74.2354 49.9528H78.3535L73.354 40.0174L77.6786 34.6943H73.4504L68.74 41.1052V34.6943H65.2418V49.9818H68.74V45.6306L70.8472 43.0488Z" fill="white"/>
<path d="M45.5471 49.9389H38.5642V31.794C38.5642 24.2306 35.0857 22.3975 31.9078 20.7226C29.235 19.3141 26.7748 18.0175 26.7748 13.5185C26.7748 12.5645 26.9773 11.2472 27.1835 9.90594C27.3972 8.5151 27.6148 7.0974 27.6148 6.0343C27.6955 5.01963 27.5836 3.99818 27.2858 3.0295C26.9878 2.06082 26.5098 1.16427 25.8795 0.392121H32.766C33.4044 1.15977 33.8895 2.05497 34.1924 3.02434C34.4952 3.9937 34.6098 5.01737 34.5289 6.0343C34.5289 7.10733 34.3072 8.55934 34.0916 9.97144C33.8873 11.308 33.6887 12.6087 33.6887 13.5185C33.6887 17.9809 36.1306 19.2557 38.7918 20.645C41.9779 22.3083 45.4783 24.1357 45.4783 31.794L45.5471 49.9389Z" fill="white"/>
<path fill-rule="evenodd" clip-rule="evenodd" d="M171.238 72.8123H177.835C177.86 72.547 177.86 72.2798 177.835 72.0146C177.835 69.0847 176.458 66.9671 173.924 66.9671C171.596 66.9671 169.888 68.9977 169.888 72.2611C169.888 76.2934 172.064 77.6568 173.841 77.6568C175.099 77.6725 176.328 77.2549 177.34 76.4674L176.678 75.4086C175.914 76.0468 174.968 76.3944 173.993 76.3949C172.354 76.3949 171.362 75.0025 171.238 72.8123ZM171.238 71.623C171.403 69.3313 172.478 68.2434 173.855 68.2434C175.563 68.2434 176.389 69.6214 176.499 71.623H171.238Z" fill="white"/>
<path d="M168.539 63.37V64.8204L168.525 64.8059C168.165 64.6387 167.775 64.5593 167.382 64.5739C166.817 64.5739 166.39 64.7769 166.39 65.6472V67.1701H168.291V68.403H166.39V77.4247H165.013V68.403H163.635V67.1701H165.013V65.7197C164.961 65.3849 164.985 65.0421 165.081 64.7184C165.176 64.3946 165.342 64.0987 165.565 63.854C165.788 63.6094 166.062 63.4226 166.366 63.3084C166.669 63.1942 166.993 63.1557 167.313 63.196C167.728 63.1812 168.142 63.2401 168.539 63.37Z" fill="white"/>
<path d="M160.592 67.1701H159.214V77.4247H160.592V67.1701Z" fill="white"/>
<path d="M159.565 65.2486C159.685 65.3011 159.814 65.3281 159.944 65.3281C160.207 65.3281 160.46 65.2181 160.645 65.0222C160.832 64.8264 160.936 64.5607 160.936 64.2838C160.936 64.0068 160.832 63.7412 160.645 63.5453C160.46 63.3495 160.207 63.2395 159.944 63.2395C159.814 63.2395 159.685 63.2665 159.565 63.319C159.445 63.3714 159.335 63.4484 159.243 63.5453C159.151 63.6423 159.078 63.7574 159.028 63.8841C158.978 64.0108 158.953 64.1466 158.953 64.2838C158.953 64.4209 158.978 64.5567 159.028 64.6834C159.078 64.8101 159.151 64.9252 159.243 65.0222C159.335 65.1192 159.445 65.1961 159.565 65.2486Z" fill="white"/>
<path d="M155.289 63.1814V77.4247H153.912V64.0082L155.289 63.1814Z" fill="white"/>
<path d="M144.188 68.3305C144.7 68.3156 145.205 68.4512 145.648 68.7221L145.992 67.2717C145.511 67.0708 144.994 66.9817 144.477 67.0106C143.992 67.016 143.515 67.1522 143.093 67.406C142.672 67.6599 142.318 68.023 142.067 68.461V67.1846H140.69V77.4537H142.067V71.4344C142.067 69.4763 142.811 68.3305 144.188 68.3305Z" fill="white"/>
<path fill-rule="evenodd" clip-rule="evenodd" d="M133.528 67.0251C135.842 67.0251 137.66 68.8236 137.66 72.3047C137.66 75.7857 135.704 77.7148 133.39 77.7148C131.077 77.7148 129.259 75.8582 129.259 72.3772C129.259 68.8962 131.214 67.0251 133.528 67.0251ZM133.432 76.4094C135.126 76.4094 136.283 75.0025 136.283 72.3047C136.283 69.6069 135.112 68.2579 133.432 68.2579C131.751 68.2579 130.608 69.6504 130.608 72.3047C130.608 74.959 131.738 76.4094 133.432 76.4094Z" fill="white"/>
<path d="M125.416 65.7197C125.416 64.8494 125.843 64.6464 126.421 64.6464L126.352 64.6609C126.741 64.6465 127.127 64.7259 127.482 64.893V63.4425C127.086 63.3104 126.671 63.2515 126.256 63.2685C125.937 63.2312 125.614 63.2718 125.312 63.3871C125.01 63.5023 124.737 63.6891 124.515 63.9331C124.293 64.1771 124.127 64.4716 124.03 64.794C123.933 65.1164 123.907 65.4579 123.956 65.7922V67.2427H122.579V68.4755H123.956V77.4972H125.333V68.4755H127.33V67.2427H125.416V65.7197Z" fill="white"/>
<path fill-rule="evenodd" clip-rule="evenodd" d="M114.315 67.1846V76.5254L114.329 76.5544C114.329 79.6438 113.006 81.1233 109.384 81.2393L108.944 80.137C112.194 80.0355 112.924 79.1362 112.924 76.7575V76.2063C112.563 76.6563 112.114 77.0188 111.608 77.2692C111.101 77.5195 110.55 77.6517 109.99 77.6568C108.048 77.6568 106.506 76.1193 106.506 72.4787C106.506 68.8381 108.145 66.9671 110.183 66.9671C110.71 66.959 111.233 67.0776 111.71 67.3138C112.187 67.5501 112.607 67.8978 112.938 68.3305V67.1846H114.315ZM111.81 75.942C112.257 75.6905 112.643 75.3343 112.938 74.9009V69.7374C112.655 69.2716 112.266 68.8872 111.807 68.6188C111.348 68.3504 110.832 68.2065 110.307 68.1999C108.696 68.1999 107.897 69.8389 107.897 72.4207C107.897 75.0025 108.82 76.3514 110.362 76.3514C110.868 76.3335 111.364 76.1934 111.81 75.942Z" fill="white"/>
<path d="M102.622 71.4779V77.4682L104.068 77.4537V71.2023C104.068 68.258 102.704 66.9816 100.652 66.9816C100.114 66.958 99.579 67.0787 99.0972 67.3324C98.6154 67.5861 98.2028 67.9645 97.8978 68.432V67.1846H96.5204V77.4682H97.8978V71.4779C97.8978 69.2298 98.7654 68.2725 100.322 68.2725C101.878 68.2725 102.622 69.2588 102.622 71.4779Z" fill="white"/>
<path d="M91.6035 67.2136H92.9807V77.4682H91.6035V67.2136Z" fill="white"/>
<path d="M93.008 63.5751C93.1884 63.7733 93.2876 64.0383 93.2838 64.3128C93.2838 64.5834 93.1827 64.8432 93.0023 65.0359C92.8219 65.2286 92.5767 65.3388 92.3197 65.3426C92.0567 65.3426 91.8045 65.2326 91.6185 65.0367C91.4325 64.8409 91.3281 64.5752 91.3281 64.2983C91.3281 64.0213 91.4325 63.7557 91.6185 63.5598C91.8045 63.364 92.0567 63.254 92.3197 63.254C92.5803 63.2616 92.8275 63.3769 93.008 63.5751Z" fill="white"/>
<path d="M87.692 68.2725C88.2037 68.2576 88.7094 68.3932 89.1519 68.6641L89.5101 67.2717C89.0235 67.0726 88.5025 66.9837 87.9812 67.0106C87.4955 67.016 87.019 67.1522 86.5971 67.406C86.1753 67.6599 85.8221 68.023 85.571 68.461V67.1846H84.1938V77.3957H85.571V71.3764C85.571 69.4183 86.3148 68.2725 87.692 68.2725Z" fill="white"/>
<path fill-rule="evenodd" clip-rule="evenodd" d="M80.8882 70.2451V77.3957L79.4971 77.4102V76.1628C79.1181 76.6202 78.6502 76.9864 78.1251 77.2366C77.5999 77.4869 77.0299 77.6153 76.4533 77.6132C76.034 77.6556 75.611 77.6 75.2143 77.4505C74.8177 77.301 74.4571 77.0611 74.1586 76.7481C73.86 76.4351 73.6308 76.0565 73.487 75.6395C73.3432 75.2224 73.2885 74.7771 73.3269 74.3353C73.3269 72.0291 75.1312 71.0428 77.0594 71.0428C77.9057 71.0299 78.7423 71.234 79.4971 71.6375V70.4191C79.5435 70.1134 79.5208 69.8006 79.4311 69.5058C79.3414 69.2111 79.187 68.9427 78.9805 68.7224C78.774 68.5021 78.5211 68.3361 78.2424 68.2378C77.9637 68.1395 77.667 68.1116 77.3762 68.1564C76.4383 68.1535 75.5182 68.4246 74.718 68.9397L74.2084 67.7503C75.215 67.1954 76.3364 66.9113 77.4726 66.9236C79.511 66.9236 80.8882 67.8663 80.8882 70.2451ZM78.3091 76.0038C78.7879 75.7366 79.1998 75.3537 79.511 74.8864L79.5661 72.8123C78.7995 72.3718 77.9312 72.1658 77.0594 72.2176C75.627 72.2176 74.7731 72.9428 74.7731 74.2337C74.7345 74.522 74.7584 74.8158 74.843 75.093C74.9274 75.3702 75.0706 75.6237 75.2614 75.8344C75.4522 76.0451 75.6858 76.2076 75.9446 76.3097C76.2035 76.4118 76.4811 76.4508 76.7564 76.4239C77.2983 76.415 77.8304 76.2711 78.3091 76.0038Z" fill="white"/>
<path d="M69.6383 68.4655C70.0405 68.6423 70.4048 68.9022 70.7102 69.2297L71.3988 68.1709C70.5535 67.369 69.4512 66.9337 68.3136 66.9526C66.3303 66.9526 64.1818 68.7656 64.1818 72.3482C64.1818 75.9307 66.1789 77.6422 68.3136 77.6422C68.9052 77.6513 69.4916 77.5265 70.0333 77.2763C70.575 77.026 71.0596 76.6562 71.4538 76.1918L70.6138 75.249C70.3337 75.5882 69.9893 75.8617 69.6025 76.0516C69.2158 76.2415 68.7954 76.3436 68.3687 76.3514C66.6334 76.3514 65.6142 74.7559 65.6142 72.2031C65.6142 69.6504 66.84 68.1999 68.3687 68.1999C68.8046 68.1983 69.2362 68.2886 69.6383 68.4655Z" fill="white"/>
</svg>
