<svg width="133" height="57" viewBox="0 0 133 57" fill="none" xmlns="http://www.w3.org/2000/svg">
<path d="M14.6029 22.2296V34.8425H9.47791V22.2095C9.47791 16.952 6.87573 15.6777 4.49841 14.5135C2.49902 13.5344 0.658569 12.6331 0.658569 9.5058C0.658569 8.84244 0.812378 7.92629 0.968994 6.99366C1.13135 6.02685 1.29663 5.04233 1.29663 4.30335C1.35693 3.59803 1.27332 2.888 1.05078 2.21464C0.828125 1.54129 0.470947 0.918086 0 0.381348H5.14551C5.61499 0.921997 5.96899 1.5495 6.1864 2.22666C6.40381 2.90383 6.48035 3.61687 6.41125 4.32351C6.41125 5.0694 6.24292 6.07872 6.0791 7.0603C5.92407 7.98935 5.77319 8.89354 5.77319 9.52596C5.77319 12.6278 7.60205 13.514 9.59509 14.4797C11.9813 15.636 14.6029 16.9062 14.6029 22.2296Z" fill="#0063BE"/>
<path d="M24.3995 34.8424V22.2295C24.3995 16.9061 21.778 15.6358 19.3918 14.4796C17.3988 13.5139 15.5699 12.6277 15.5699 9.52585C15.5699 8.89374 15.7181 7.99013 15.8705 7.06156L15.8708 7.06019C16.032 6.07861 16.1976 5.06928 16.1976 4.3234C16.2579 3.61808 16.1744 2.90805 15.9518 2.23469C15.7291 1.56134 15.3719 0.938133 14.901 0.401395H9.7041C10.1783 0.936426 10.5383 1.55915 10.7628 2.23278C10.9873 2.9064 11.0717 3.61728 11.0111 4.3234C11.0111 5.06238 10.8458 6.0469 10.6835 7.01371C10.5269 7.94634 10.373 8.86249 10.373 9.52585C10.373 12.6532 12.2135 13.5545 14.2129 14.5336C16.5902 15.6978 19.1924 16.9721 19.1924 22.2295V34.8424H24.3995Z" fill="#0063BE"/>
<path d="M51.3208 12.4797V10.5338H56.8162V8.3157H48.748V18.9424H51.3208V14.6776H55.2931V12.4797H51.3208Z" fill="#0063BE"/>
<path fill-rule="evenodd" clip-rule="evenodd" d="M60.5724 15.2825H62.4144L64.2462 18.892H67.1586L65.0181 14.8591C65.6461 14.616 66.1786 14.1826 66.5377 13.6222C66.8969 13.0618 67.064 12.4036 67.0144 11.7437C67.0144 9.32393 65.3268 8.3157 62.9598 8.3157H58.0408V18.9424H60.5724V15.2825ZM60.5724 13.2157V10.4632H62.8878C63.9169 10.4632 64.4314 10.9068 64.4314 11.8042C64.4314 12.7015 63.886 13.2157 62.8569 13.2157H60.5724Z" fill="#0063BE"/>
<path d="M76.5438 8.3157H68.7228L68.6816 18.9424H76.9143V16.7546H71.2749V14.4457H74.8562V12.2982H71.2749V10.5036H76.5438V8.3157Z" fill="#0063BE"/>
<path d="M77.6553 17.6015C78.9109 18.5987 80.4849 19.1306 82.101 19.1037V19.0634C84.8177 19.0634 86.5055 17.9443 86.5055 15.6556C86.5055 13.6391 85.0648 12.893 82.667 12.3486C81.0925 11.9856 80.6088 11.7235 80.6088 11.2396C80.6088 10.7556 80.9895 10.3422 82.0187 10.3422C83.0568 10.3587 84.0598 10.7134 84.8693 11.3505L86.3408 9.51549C85.1614 8.56643 83.6672 8.07487 82.1422 8.13422C79.7135 8.13422 78.0258 9.38442 78.0258 11.411C78.0258 13.4375 79.3328 14.113 81.7408 14.6574C83.4594 15.0507 83.9327 15.1817 83.9327 15.8673C83.9327 16.5529 83.4182 16.8755 82.2142 16.8755C81.0962 16.8365 80.0178 16.4597 79.127 15.7967L77.6553 17.6015Z" fill="#0063BE"/>
<path d="M95.9423 8.27538H88.1315L88.0903 18.9021H96.3231V16.7142H90.694V14.4054H94.2545V12.2579H90.694V10.4632H95.9423V8.27538Z" fill="#0063BE"/>
<path d="M100.265 18.9021V12.5099L104.906 18.9424H107.026V8.3157H104.556V14.3651L100.069 8.3157H97.7638V18.9021H100.265Z" fill="#0063BE"/>
<path d="M111.801 8.27538H109.176V18.9424H111.801V8.27538Z" fill="#0063BE"/>
<path d="M113.735 14.355C113.735 17.6317 115.649 19.1037 118.346 19.1037H118.418C121.145 19.1037 123.069 17.6216 123.069 14.355V8.30562H120.466V14.355C120.466 15.8774 119.766 16.8251 118.407 16.8251C117.049 16.8251 116.349 15.8572 116.349 14.355V8.30562H113.735V14.355Z" fill="#0063BE"/>
<path d="M124.201 17.6015C125.454 18.5972 127.024 19.1291 128.637 19.1037L128.585 19.0432C131.312 19.0432 133 17.9241 133 15.6354C133 13.619 131.559 12.8729 129.161 12.3284C127.577 11.9655 127.103 11.7033 127.103 11.2194C127.103 10.7354 127.484 10.3221 128.513 10.3221C129.551 10.3385 130.554 10.6932 131.364 11.3303L132.835 9.49533C131.655 8.54793 130.161 8.0566 128.637 8.11406C126.156 8.11406 124.52 9.40459 124.52 11.4311C124.52 13.4577 125.765 14.1634 128.173 14.6574C129.892 15.0507 130.365 15.1817 130.365 15.8673C130.365 16.5529 129.851 16.8755 128.637 16.8755C127.519 16.8333 126.442 16.4568 125.549 15.7967L124.201 17.6015Z" fill="#0063BE"/>
<path fill-rule="evenodd" clip-rule="evenodd" d="M71.1102 24.2456V34.8521H76.2557C78.8594 34.8521 80.2692 33.5919 80.2692 31.4141C80.2966 30.9014 80.1555 30.3936 79.8665 29.9653C79.5775 29.537 79.156 29.2108 78.6638 29.0347C79.0481 28.8515 79.3706 28.5641 79.5931 28.2067C79.8157 27.8493 79.929 27.4368 79.9193 27.0182C79.9193 25.2538 78.7461 24.2456 76.2557 24.2456H71.1102ZM73.5801 28.2785V26.262H76.1219C76.9863 26.262 77.3466 26.6553 77.3466 27.2703C77.3466 27.8853 76.9863 28.2785 76.1528 28.2785H73.5801ZM73.5801 32.7651V30.2345H76.2866C77.1819 30.2345 77.6655 30.668 77.6655 31.4443C77.6768 31.6241 77.6481 31.8041 77.5817 31.972C77.5151 32.14 77.4125 32.2918 77.2805 32.4173C77.1486 32.5427 76.9905 32.6387 76.8173 32.6987C76.6439 32.7588 76.4594 32.7814 76.2764 32.7651H73.5801Z" fill="#0063BE"/>
<path fill-rule="evenodd" clip-rule="evenodd" d="M62.5687 32.7853H66.4381L67.0557 34.8521H69.8547L65.8618 24.2456H63.1759L59.1831 34.8017H61.941L62.5687 32.7853ZM65.7898 30.7688H63.2377L64.524 26.7359L65.7898 30.7688Z" fill="#0063BE"/>
<path d="M84.756 24.2456H82.1421V34.8521H84.756V24.2456Z" fill="#0063BE"/>
<path d="M52.9364 30.053L55.468 34.8521H58.545L54.8094 27.9458L58.0408 24.2456H54.8815L51.3619 28.702V24.2456H48.748V34.8723H51.3619V31.8476L52.9364 30.053Z" fill="#0063BE"/>
<path d="M34.0323 34.8424H28.8148V22.2295C28.8148 16.9721 26.2157 15.6978 23.8412 14.5336C21.8441 13.5545 20.0059 12.6532 20.0059 9.52585C20.0059 8.86272 20.1572 7.94696 20.3113 7.01466C20.4709 6.04785 20.6335 5.06238 20.6335 4.3234C20.6938 3.61808 20.6102 2.90805 20.3877 2.23469C20.165 1.56134 19.8079 0.938133 19.3369 0.401395H24.4824C24.9595 0.935005 25.3219 1.55728 25.5482 2.23111C25.7745 2.90493 25.8601 3.61651 25.7997 4.3234C25.7997 5.06928 25.634 6.07861 25.4729 7.06019C25.3203 7.98923 25.1719 8.89342 25.1719 9.52585C25.1719 12.6277 26.9965 13.5139 28.9849 14.4796C31.3655 15.6358 33.981 16.9061 33.981 22.2295L34.0323 34.8424Z" fill="#0063BE"/>
<path fill-rule="evenodd" clip-rule="evenodd" d="M127.948 50.7423H132.877C132.895 50.5579 132.895 50.3721 132.877 50.1877C132.877 48.1511 131.848 46.6791 129.954 46.6791C128.215 46.6791 126.939 48.0906 126.939 50.3591C126.939 53.162 128.565 54.1097 129.893 54.1097C130.833 54.1207 131.75 53.8304 132.506 53.283L132.012 52.547C131.442 52.9907 130.734 53.2323 130.006 53.2326C128.781 53.2326 128.04 52.2647 127.948 50.7423ZM127.948 49.9155C128.071 48.3225 128.874 47.5663 129.903 47.5663C131.179 47.5663 131.796 48.5242 131.879 49.9155H127.948Z" fill="#0063BE"/>
<path d="M125.931 44.1787V45.1869L125.92 45.1768C125.652 45.0606 125.36 45.0054 125.066 45.0155C124.644 45.0155 124.325 45.1567 124.325 45.7616V46.8203H125.745V47.6772H124.325V53.9484H123.296V47.6772H122.267V46.8203H123.296V45.812C123.258 45.5793 123.275 45.341 123.347 45.116C123.418 44.8909 123.542 44.6853 123.709 44.5152C123.876 44.3451 124.08 44.2152 124.307 44.1359C124.533 44.0565 124.776 44.0297 125.015 44.0577C125.325 44.0475 125.634 44.0884 125.931 44.1787Z" fill="#0063BE"/>
<path d="M119.993 46.8203H118.964V53.9484H119.993V46.8203Z" fill="#0063BE"/>
<path d="M119.225 45.4845C119.315 45.521 119.412 45.5398 119.509 45.5398C119.705 45.5398 119.894 45.4633 120.033 45.3272C120.172 45.1911 120.25 45.0064 120.25 44.8139C120.25 44.6214 120.172 44.4367 120.033 44.3006C119.894 44.1644 119.705 44.088 119.509 44.088C119.412 44.088 119.315 44.1067 119.225 44.1432C119.135 44.1797 119.054 44.2332 118.985 44.3006C118.916 44.368 118.862 44.448 118.824 44.5361C118.787 44.6242 118.768 44.7186 118.768 44.8139C118.768 44.9092 118.787 45.0036 118.824 45.0917C118.862 45.1798 118.916 45.2598 118.985 45.3272C119.054 45.3946 119.135 45.4481 119.225 45.4845Z" fill="#0063BE"/>
<path d="M116.031 44.0476V53.9484H115.002V44.6223L116.031 44.0476Z" fill="#0063BE"/>
<path d="M107.736 47.6268C108.119 47.6165 108.496 47.7108 108.827 47.8991L109.084 46.8908C108.725 46.7512 108.339 46.6893 107.952 46.7094C107.589 46.7131 107.233 46.8078 106.918 46.9842C106.603 47.1607 106.339 47.4131 106.151 47.7176V46.8303H105.122V53.9686H106.151V49.7844C106.151 48.4233 106.707 47.6268 107.736 47.6268Z" fill="#0063BE"/>
<path fill-rule="evenodd" clip-rule="evenodd" d="M99.7709 46.7194C101.5 46.7194 102.858 47.9696 102.858 50.3894C102.858 52.8091 101.397 54.1501 99.6681 54.1501C97.9392 54.1501 96.5808 52.8595 96.5808 50.4398C96.5808 48.0201 98.0421 46.7194 99.7709 46.7194ZM99.6989 53.2427C100.965 53.2427 101.829 52.2647 101.829 50.3894C101.829 48.5141 100.954 47.5764 99.6989 47.5764C98.4434 47.5764 97.5892 48.5443 97.5892 50.3894C97.5892 52.2344 98.4331 53.2427 99.6989 53.2427Z" fill="#0063BE"/>
<path d="M93.7096 45.812C93.7096 45.2071 94.0286 45.0659 94.4608 45.0659L94.4094 45.076C94.6996 45.0661 94.9882 45.1212 95.2532 45.2373V44.2291C94.9574 44.1372 94.6475 44.0963 94.3373 44.1081C94.0989 44.0822 93.8575 44.1104 93.632 44.1906C93.4064 44.2707 93.2026 44.4005 93.0365 44.5701C92.8704 44.7397 92.7463 44.9445 92.6738 45.1686C92.6014 45.3927 92.5825 45.6301 92.6188 45.8624V46.8707H91.5896V47.7277H92.6188V53.9988H93.6478V47.7277H95.14V46.8707H93.7096V45.812Z" fill="#0063BE"/>
<path fill-rule="evenodd" clip-rule="evenodd" d="M85.415 46.8303V53.3233L85.4254 53.3435C85.4254 55.491 84.4374 56.5194 81.731 56.6001L81.4016 55.8338C83.8303 55.7632 84.3757 55.1381 84.3757 53.4846V53.1015C84.106 53.4143 83.7705 53.6663 83.3922 53.8403C83.0139 54.0143 82.6017 54.1062 82.1837 54.1097C80.7327 54.1097 79.5801 53.041 79.5801 50.5104C79.5801 47.9797 80.8047 46.6791 82.3278 46.6791C82.7218 46.6735 83.1119 46.7559 83.4686 46.9201C83.8252 47.0844 84.1389 47.326 84.386 47.6268V46.8303H85.415ZM83.5436 52.9177C83.8773 52.7429 84.1655 52.4953 84.386 52.1941V48.6048C84.1744 48.281 83.884 48.0138 83.541 47.8273C83.1979 47.6407 82.8127 47.5406 82.4204 47.5361C81.2164 47.5361 80.6195 48.6754 80.6195 50.47C80.6195 52.2647 81.309 53.2023 82.4615 53.2023C82.8397 53.1899 83.21 53.0926 83.5436 52.9177Z" fill="#0063BE"/>
<path d="M76.6781 49.8147V53.9787L77.7587 53.9686V49.6231C77.7587 47.5764 76.7399 46.6892 75.2064 46.6892C74.8043 46.6728 74.4045 46.7567 74.0446 46.9331C73.6846 47.1094 73.3762 47.3724 73.1483 47.6974V46.8303H72.1191V53.9787H73.1483V49.8147C73.1483 48.2519 73.7966 47.5865 74.9595 47.5865C76.1223 47.5865 76.6781 48.2721 76.6781 49.8147Z" fill="#0063BE"/>
<path d="M68.4453 46.8505H69.4744V53.9787H68.4453V46.8505Z" fill="#0063BE"/>
<path d="M69.4948 44.3213C69.6295 44.459 69.7036 44.6432 69.7008 44.834C69.7008 45.0222 69.6252 45.2027 69.4905 45.3367C69.3557 45.4706 69.1725 45.5472 68.9805 45.5499C68.7839 45.5499 68.5955 45.4734 68.4565 45.3373C68.3175 45.2011 68.2395 45.0165 68.2395 44.824C68.2395 44.6314 68.3175 44.4468 68.4565 44.3107C68.5955 44.1745 68.7839 44.098 68.9805 44.098C69.1752 44.1033 69.3599 44.1835 69.4948 44.3213Z" fill="#0063BE"/>
<path d="M65.5227 47.5865C65.905 47.5762 66.2828 47.6704 66.6135 47.8587L66.8811 46.8908C66.5176 46.7525 66.1283 46.6906 65.7388 46.7094C65.3759 46.7131 65.0198 46.8078 64.7046 46.9842C64.3894 47.1607 64.1255 47.4131 63.9379 47.7176V46.8303H62.9088V53.9283H63.9379V49.7441C63.9379 48.383 64.4937 47.5865 65.5227 47.5865Z" fill="#0063BE"/>
<path fill-rule="evenodd" clip-rule="evenodd" d="M60.439 48.9577V53.9283L59.3995 53.9383V53.0713C59.1163 53.3892 58.7667 53.6437 58.3744 53.8177C57.9819 53.9917 57.556 54.0809 57.1252 54.0795C56.8119 54.1089 56.4958 54.0703 56.1995 53.9664C55.9031 53.8624 55.6337 53.6957 55.4106 53.4781C55.1875 53.2605 55.0162 52.9974 54.9088 52.7075C54.8014 52.4176 54.7605 52.108 54.7892 51.8009C54.7892 50.1978 56.1373 49.5122 57.5781 49.5122C58.2104 49.5033 58.8356 49.6452 59.3995 49.9256V49.0787C59.4342 48.8662 59.4172 48.6487 59.3502 48.4438C59.2832 48.239 59.1678 48.0524 59.0135 47.8993C58.8593 47.7461 58.6703 47.6307 58.462 47.5624C58.2538 47.4941 58.0321 47.4747 57.8148 47.5059C57.114 47.5038 56.4265 47.6923 55.8286 48.0503L55.4479 47.2235C56.2 46.8378 57.0378 46.6404 57.8868 46.6489C59.4099 46.6489 60.439 47.3042 60.439 48.9577ZM58.5118 52.9608C58.8696 52.775 59.1774 52.5088 59.4099 52.184L59.451 50.7423C58.8783 50.4361 58.2295 50.2929 57.5781 50.3289C56.5078 50.3289 55.8698 50.833 55.8698 51.7303C55.8409 51.9307 55.8588 52.1349 55.922 52.3276C55.9851 52.5203 56.092 52.6965 56.2346 52.843C56.3772 52.9894 56.5518 53.1024 56.7451 53.1734C56.9386 53.2443 57.146 53.2715 57.3517 53.2527C57.7566 53.2466 58.1542 53.1465 58.5118 52.9608Z" fill="#0063BE"/>
<path d="M52.0331 47.7207C52.3336 47.8436 52.6058 48.0242 52.834 48.2519L53.3485 47.5159C52.7169 46.9585 51.8933 46.6559 51.0433 46.669C49.5614 46.669 47.9561 47.9293 47.9561 50.4196C47.9561 52.91 49.4482 54.0997 51.0433 54.0997C51.4854 54.106 51.9235 54.0192 52.3282 53.8453C52.733 53.6713 53.0951 53.4142 53.3896 53.0914L52.762 52.4361C52.5527 52.6719 52.2954 52.8619 52.0063 52.9939C51.7174 53.1259 51.4033 53.1969 51.0845 53.2023C49.7878 53.2023 49.0264 52.0933 49.0264 50.3188C49.0264 48.5443 49.9423 47.5361 51.0845 47.5361C51.4102 47.535 51.7327 47.5977 52.0331 47.7207Z" fill="#0063BE"/>
</svg>
