<svg width="100" height="101" viewBox="0 0 100 101" fill="none" xmlns="http://www.w3.org/2000/svg">
<circle cx="50" cy="50.5" r="50" fill="#0063BE"/>
<g clip-path="url(#clip0_209_719)">
<path d="M72.4991 50.5C72.4991 44.1998 62.6197 39.2504 49.9991 39.2504L51.6358 38.0232C51.8472 37.8584 51.9855 37.6173 52.021 37.3516C52.0565 37.0859 51.9862 36.8169 51.8254 36.6025C51.6646 36.388 51.4261 36.2453 51.1611 36.2049C50.8961 36.1645 50.6259 36.2297 50.4085 36.3865L46.3174 39.4547L46.1131 39.7001C46.0461 39.8334 46.0112 39.9805 46.0112 40.1297C46.0112 40.2788 46.0461 40.4259 46.1131 40.5592L46.3174 40.8047L50.4085 43.8728C50.5847 44.007 50.8006 44.0789 51.0221 44.0771C51.1806 44.0755 51.3366 44.0378 51.4784 43.9669C51.6201 43.8959 51.7438 43.7936 51.84 43.6677C52.0015 43.4511 52.0706 43.1794 52.0323 42.912C51.9941 42.6446 51.8515 42.4032 51.6358 42.2406L49.9991 41.2956C61.0848 41.2956 70.4531 45.5086 70.4531 50.5C70.4531 53.7724 66.362 56.6363 60.5535 58.3343C61.0232 55.7494 61.2559 53.1271 61.2487 50.5L62.497 52.1366C62.5693 52.2629 62.6677 52.3723 62.7856 52.4575C62.9036 52.5427 63.0384 52.6018 63.1809 52.6307C63.3235 52.6597 63.4707 52.658 63.6125 52.6256C63.7544 52.5932 63.8877 52.5309 64.0035 52.4429C64.1194 52.3548 64.2152 52.2431 64.2844 52.1152C64.3537 51.9872 64.3948 51.8459 64.4051 51.7008C64.4155 51.5557 64.3947 51.41 64.3443 51.2735C64.2938 51.137 64.2148 51.0129 64.1126 50.9094L61.0444 46.8182L60.799 46.614H60.6938C60.5605 46.547 60.4134 46.5121 60.2642 46.5121C60.1151 46.5121 59.968 46.547 59.8347 46.614H59.7321L59.4867 46.8182L56.4186 50.9094C56.3379 51.0168 56.2792 51.139 56.2459 51.2691C56.2125 51.3991 56.2051 51.5345 56.2241 51.6675C56.243 51.8004 56.288 51.9283 56.3564 52.0438C56.4248 52.1594 56.5154 52.2603 56.6228 52.3409C56.7991 52.475 57.0149 52.5468 57.2364 52.5451C57.3948 52.5437 57.5508 52.5061 57.6925 52.4353C57.8343 52.3646 57.958 52.2624 58.0543 52.1366L59.2816 50.5C59.2857 53.3097 59.0049 56.1125 58.4435 58.8655C55.6647 59.4326 52.8352 59.7137 49.9991 59.7044C47.1894 59.7087 44.3865 59.4276 41.6336 58.8655C41.0715 56.1126 40.7905 53.3097 40.7947 50.5C40.7947 39.4144 45.0086 30.046 49.9991 30.046C52.2897 30.046 54.4988 32.0911 56.238 35.609C56.2949 35.7334 56.3761 35.8451 56.4768 35.9376C56.5776 36.0301 56.6958 36.1015 56.8246 36.1476C56.9534 36.1937 57.0901 36.2136 57.2266 36.206C57.3632 36.1984 57.4969 36.1636 57.6198 36.1036C57.7426 36.0435 57.8523 35.9595 57.9422 35.8564C58.0321 35.7533 58.1004 35.6333 58.1432 35.5034C58.186 35.3735 58.2024 35.2363 58.1913 35.1C58.1803 34.9636 58.142 34.8309 58.0789 34.7096C55.975 30.3931 53.1085 28 49.9991 28C43.6989 28 38.7496 37.8794 38.7496 50.5C38.7432 53.1271 38.9759 55.7493 39.4447 58.3343C33.6354 56.6363 29.5451 53.7759 29.5451 50.5C29.5451 48.1892 31.5911 45.9802 35.109 44.3637C35.2322 44.306 35.3426 44.2244 35.4339 44.1235C35.5251 44.0227 35.5954 43.9047 35.6407 43.7764C35.6859 43.6482 35.7051 43.5122 35.6972 43.3764C35.6893 43.2406 35.6545 43.1078 35.5947 42.9856C35.535 42.8634 35.4515 42.7543 35.3492 42.6647C35.2469 42.5752 35.1277 42.5068 34.9987 42.4638C34.8697 42.4207 34.7334 42.4037 34.5978 42.4139C34.4621 42.424 34.3299 42.4611 34.2087 42.5228C29.8932 44.4864 27.5 47.3503 27.5 50.5C27.5 54.9795 32.5116 58.6814 39.9155 60.581C41.8177 67.9858 45.5196 72.9965 49.9965 72.9965C54.4733 72.9965 58.1779 67.9849 60.0775 60.581C67.4814 58.6788 72.493 54.9769 72.493 50.5H72.4991ZM49.9991 70.954C46.7267 70.954 43.8628 66.8628 42.1648 61.0544C44.7498 61.5232 47.372 61.7559 49.9991 61.7496C52.6262 61.7559 55.2485 61.5232 57.8334 61.0544C56.1354 66.8637 53.2715 70.954 49.9991 70.954Z" fill="white"/>
</g>
<defs>
<clipPath id="clip0_209_719">
<rect width="45" height="45" fill="white" transform="translate(27.5 28)"/>
</clipPath>
</defs>
</svg>
