<svg width="65" height="28" viewBox="0 0 65 28" fill="none" xmlns="http://www.w3.org/2000/svg">
<path d="M7.13676 10.8261V17.076H4.63206V10.8161C4.63206 8.211 3.36032 7.57958 2.19847 7.00269C1.22133 6.51752 0.321857 6.07092 0.321857 4.52129C0.321857 4.19259 0.397027 3.73862 0.473569 3.27649C0.552914 2.79743 0.633692 2.30958 0.633692 1.94341C0.663163 1.59391 0.622297 1.24208 0.51354 0.908423C0.404723 0.574768 0.230162 0.265961 0 0H2.51472C2.74417 0.267899 2.91718 0.578835 3.02343 0.914379C3.12968 1.24992 3.16709 1.60324 3.13332 1.9534C3.13332 2.32299 3.05105 2.82313 2.97099 3.30951C2.89522 3.76987 2.82149 4.21791 2.82149 4.53128C2.82149 6.0683 3.71529 6.50741 4.68933 6.98594C5.85553 7.55887 7.13676 8.1883 7.13676 10.8261Z" fill="white"/>
<path d="M11.9246 17.0759V10.8261C11.9246 8.18824 10.6434 7.55881 9.47722 6.98589C8.50317 6.50736 7.60937 6.06825 7.60937 4.53123C7.60937 4.21801 7.6818 3.77026 7.75625 3.31014L7.75643 3.30946C7.83518 2.82307 7.91614 2.32294 7.91614 1.95334C7.94561 1.60384 7.9048 1.25201 7.79598 0.918359C7.68717 0.584703 7.51261 0.275895 7.28244 0.00993365H4.74261C4.97438 0.275049 5.15031 0.583616 5.26002 0.917408C5.36974 1.2512 5.41096 1.60345 5.38137 1.95334C5.38137 2.31952 5.30059 2.80736 5.22125 3.28643C5.1447 3.74856 5.06953 4.20252 5.06953 4.53123C5.06953 6.08086 5.969 6.52745 6.94615 7.01262C8.108 7.58951 9.37974 8.22093 9.37974 10.8261V17.0759H11.9246Z" fill="white"/>
<path d="M25.0816 5.99489V5.03068H27.7673V3.93158H23.8242V9.19726H25.0816V7.084H27.0229V5.99489H25.0816Z" fill="white"/>
<path fill-rule="evenodd" clip-rule="evenodd" d="M29.603 7.38375H30.5033L31.3985 9.17229H32.8219L31.7757 7.17392C32.0827 7.05344 32.3429 6.8387 32.5184 6.56101C32.694 6.28332 32.7756 5.95719 32.7514 5.63019C32.7514 4.43117 31.9266 3.93158 30.7698 3.93158H28.3658V9.19726H29.603V7.38375ZM29.603 6.35959V4.99571H30.7346C31.2376 4.99571 31.489 5.21553 31.489 5.66017C31.489 6.1048 31.2225 6.35959 30.7196 6.35959H29.603Z" fill="white"/>
<path d="M37.4086 3.93158H33.5863L33.5662 9.19726H37.5897V8.11315H34.8336V6.96909H36.5839V5.90496H34.8336V5.01569H37.4086V3.93158Z" fill="white"/>
<path d="M37.9518 8.53281C38.5655 9.02695 39.3347 9.29051 40.1245 9.2772V9.25721C41.4523 9.25721 42.2771 8.70267 42.2771 7.5686C42.2771 6.56942 41.573 6.19972 40.4012 5.92994C39.6317 5.75009 39.3953 5.6202 39.3953 5.38039C39.3953 5.14059 39.5813 4.93576 40.0843 4.93576C40.5917 4.94389 41.0819 5.11968 41.4775 5.43535L42.1966 4.52609C41.6202 4.05582 40.89 3.81225 40.1447 3.84165C38.9577 3.84165 38.1329 4.46115 38.1329 5.46532C38.1329 6.4695 38.7717 6.80422 39.9485 7.074C40.7884 7.26884 41.0198 7.33379 41.0198 7.67351C41.0198 8.01324 40.7683 8.1731 40.1799 8.1731C39.6335 8.15377 39.1065 7.96705 38.6711 7.63854L37.9518 8.53281Z" fill="white"/>
<path d="M46.8891 3.9116H43.0718L43.0517 9.17728H47.0752V8.09317H44.3241V6.94911H46.0642V5.88498H44.3241V4.99571H46.8891V3.9116Z" fill="white"/>
<path d="M49.0015 9.17728V6.00988L51.2697 9.19726H52.3058V3.93158H51.0987V6.92912L48.9059 3.93158H47.7793V9.17728H49.0015Z" fill="white"/>
<path d="M54.6394 3.9116H53.3569V9.19726H54.6394V3.9116Z" fill="white"/>
<path d="M55.5849 6.92413C55.5849 8.5478 56.5204 9.2772 57.8381 9.2772H57.8733C59.2061 9.2772 60.1466 8.5428 60.1466 6.92413V3.92659H58.8742V6.92413C58.8742 7.67851 58.5322 8.14812 57.8683 8.14812C57.2044 8.14812 56.8624 7.66852 56.8624 6.92413V3.92659H55.5849V6.92413Z" fill="white"/>
<path d="M60.6998 8.53281C61.3119 9.02621 62.0794 9.28976 62.8675 9.2772L62.8424 9.24722C64.1752 9.24722 65 8.69268 65 7.55861C65 6.55943 64.2959 6.18973 63.124 5.91995C62.3495 5.7401 62.1181 5.61021 62.1181 5.3704C62.1181 5.1306 62.3042 4.92577 62.8072 4.92577C63.3145 4.9339 63.8047 5.10968 64.2003 5.42536L64.9195 4.5161C64.3426 4.04665 63.6127 3.80319 62.8675 3.83166C61.6554 3.83166 60.8558 4.47114 60.8558 5.47532C60.8558 6.47949 61.4643 6.8292 62.6412 7.074C63.4811 7.26884 63.7125 7.33379 63.7125 7.67351C63.7125 8.01324 63.461 8.1731 62.8675 8.1731C62.3214 8.15216 61.7949 7.96561 61.3587 7.63854L60.6998 8.53281Z" fill="white"/>
<path fill-rule="evenodd" clip-rule="evenodd" d="M34.7531 11.8251V17.0807H37.2678C38.5403 17.0807 39.2293 16.4563 39.2293 15.3771C39.2427 15.1231 39.1738 14.8715 39.0325 14.6593C38.8913 14.447 38.6853 14.2854 38.4447 14.1981C38.6325 14.1073 38.7901 13.965 38.8989 13.7878C39.0077 13.6107 39.063 13.4063 39.0583 13.1989C39.0583 12.3247 38.4849 11.8251 37.2678 11.8251H34.7531ZM35.9602 13.8234V12.8242H37.2025C37.6249 12.8242 37.8009 13.0191 37.8009 13.3238C37.8009 13.6286 37.6249 13.8234 37.2176 13.8234H35.9602ZM35.9602 16.0466V14.7926H37.2829C37.7205 14.7926 37.9568 15.0075 37.9568 15.3921C37.9623 15.4812 37.9483 15.5704 37.9159 15.6536C37.8833 15.7368 37.8332 15.8121 37.7687 15.8742C37.7042 15.9364 37.6269 15.984 37.5423 16.0137C37.4576 16.0435 37.3674 16.0547 37.2779 16.0466H35.9602Z" fill="white"/>
<path fill-rule="evenodd" clip-rule="evenodd" d="M30.5787 16.0566H32.4698L32.7716 17.0807H34.1395L32.1881 11.8251H30.8754L28.9241 17.0558H30.2719L30.5787 16.0566ZM32.1529 15.0574H30.9056L31.5343 13.059L32.1529 15.0574Z" fill="white"/>
<path d="M41.4221 11.8251H40.1446V17.0807H41.4221V11.8251Z" fill="white"/>
<path d="M25.8712 14.7027L27.1084 17.0807H28.6122L26.7866 13.6586L28.3658 11.8251H26.8218L25.1017 14.0332V11.8251H23.8242V17.0907H25.1017V15.592L25.8712 14.7027Z" fill="white"/>
<path d="M16.6324 17.0759H14.0824V10.8261C14.0824 8.22093 12.8122 7.58951 11.6517 7.01262C10.6757 6.52745 9.7773 6.08086 9.7773 4.53123C9.7773 4.20264 9.85128 3.74887 9.92657 3.2869C10.0046 2.80783 10.0841 2.31952 10.0841 1.95334C10.1135 1.60384 10.0727 1.25201 9.96391 0.918359C9.85509 0.584703 9.68053 0.275895 9.45037 0.00993365H11.9651C12.1982 0.274345 12.3754 0.582691 12.486 0.91658C12.5966 1.25047 12.6384 1.60307 12.6089 1.95334C12.6089 2.32294 12.5279 2.82307 12.4492 3.30946C12.3746 3.76981 12.302 4.21785 12.302 4.53123C12.302 6.06825 13.1938 6.50736 14.1655 6.98589C15.329 7.55881 16.6072 8.18824 16.6072 10.8261L16.6324 17.0759Z" fill="white"/>
<path fill-rule="evenodd" clip-rule="evenodd" d="M62.5307 24.9545H64.9398C64.9489 24.8632 64.9489 24.7711 64.9398 24.6798C64.9398 23.6706 64.4369 22.9412 63.5115 22.9412C62.6615 22.9412 62.0378 23.6406 62.0378 24.7647C62.0378 26.1535 62.8325 26.6232 63.4813 26.6232C63.9407 26.6286 64.3893 26.4847 64.7588 26.2135L64.5174 25.8488C64.2383 26.0686 63.8927 26.1884 63.5366 26.1885C62.9381 26.1885 62.576 25.7089 62.5307 24.9545ZM62.5307 24.5449C62.5911 23.7555 62.9834 23.3808 63.4863 23.3808C64.11 23.3808 64.4118 23.8554 64.452 24.5449H62.5307Z" fill="white"/>
<path d="M61.545 21.7022V22.2018L61.5399 22.1968C61.4087 22.1392 61.266 22.1118 61.1225 22.1169C60.9163 22.1169 60.7604 22.1868 60.7604 22.4865V23.0111H61.4544V23.4358H60.7604V26.5432H60.2575V23.4358H59.7545V23.0111H60.2575V22.5115C60.2387 22.3962 60.2472 22.2781 60.2822 22.1666C60.3172 22.0551 60.3778 21.9532 60.4593 21.8689C60.5407 21.7846 60.6407 21.7203 60.7515 21.681C60.8622 21.6416 60.9806 21.6284 61.0974 21.6422C61.2489 21.6372 61.4002 21.6574 61.545 21.7022Z" fill="white"/>
<path d="M58.643 23.0111H58.1401V26.5432H58.643V23.0111Z" fill="white"/>
<path d="M58.2681 22.3493C58.312 22.3673 58.3591 22.3766 58.4066 22.3766C58.5027 22.3766 58.5948 22.3387 58.6627 22.2713C58.7306 22.2038 58.7687 22.1123 58.7687 22.0169C58.7687 21.9215 58.7306 21.83 58.6627 21.7626C58.5948 21.6951 58.5027 21.6572 58.4066 21.6572C58.3591 21.6572 58.312 21.6665 58.2681 21.6846C58.2241 21.7027 58.1842 21.7292 58.1506 21.7626C58.117 21.796 58.0903 21.8356 58.0721 21.8793C58.0539 21.9229 58.0445 21.9697 58.0445 22.0169C58.0445 22.0642 58.0539 22.1109 58.0721 22.1546C58.0903 22.1982 58.117 22.2379 58.1506 22.2713C58.1842 22.3047 58.2241 22.3312 58.2681 22.3493Z" fill="white"/>
<path d="M56.7067 21.6372V26.5432H56.2038V21.922L56.7067 21.6372Z" fill="white"/>
<path d="M52.653 23.4108C52.8399 23.4057 53.0245 23.4524 53.1861 23.5457L53.3118 23.0461C53.1361 22.9769 52.9474 22.9462 52.7586 22.9562C52.5812 22.958 52.4072 23.0049 52.2532 23.0924C52.0992 23.1798 51.9702 23.3049 51.8785 23.4558V23.0161H51.3755V26.5532H51.8785V24.4799C51.8785 23.8055 52.1501 23.4108 52.653 23.4108Z" fill="white"/>
<path fill-rule="evenodd" clip-rule="evenodd" d="M48.7602 22.9612C49.6051 22.9612 50.2691 23.5807 50.2691 24.7797C50.2691 25.9787 49.5549 26.6431 48.71 26.6431C47.865 26.6431 47.2011 26.0037 47.2011 24.8046C47.2011 23.6056 47.9153 22.9612 48.7602 22.9612ZM48.725 26.1935C49.3437 26.1935 49.7661 25.7089 49.7661 24.7797C49.7661 23.8504 49.3386 23.3858 48.725 23.3858C48.1114 23.3858 47.694 23.8654 47.694 24.7797C47.694 25.6939 48.1064 26.1935 48.725 26.1935Z" fill="white"/>
<path d="M45.7979 22.5115C45.7979 22.2118 45.9538 22.1418 46.1651 22.1418L46.1399 22.1468C46.2818 22.1419 46.4228 22.1692 46.5523 22.2268V21.7272C46.4078 21.6816 46.2563 21.6614 46.1047 21.6672C45.9882 21.6544 45.8702 21.6684 45.76 21.7081C45.6497 21.7478 45.5502 21.8121 45.469 21.8962C45.3878 21.9802 45.3272 22.0816 45.2917 22.1927C45.2563 22.3037 45.2471 22.4214 45.2648 22.5365V23.0361H44.7618V23.4608H45.2648V26.5682H45.7677V23.4608H46.497V23.0361H45.7979V22.5115Z" fill="white"/>
<path fill-rule="evenodd" clip-rule="evenodd" d="M41.7442 23.0161V26.2335L41.7493 26.2435C41.7493 27.3076 41.2664 27.8172 39.9437 27.8571L39.7827 27.4775C40.9697 27.4425 41.2363 27.1327 41.2363 26.3134V26.1236C41.1044 26.2786 40.9405 26.4034 40.7556 26.4897C40.5707 26.5759 40.3692 26.6214 40.165 26.6232C39.4558 26.6232 38.8925 26.0936 38.8925 24.8396C38.8925 23.5856 39.491 22.9412 40.2354 22.9412C40.4279 22.9384 40.6186 22.9792 40.7929 23.0606C40.9672 23.142 41.1205 23.2617 41.2413 23.4108V23.0161H41.7442ZM40.8296 26.0325C40.9927 25.9459 41.1335 25.8232 41.2413 25.6739V23.8954C41.1379 23.7349 40.996 23.6025 40.8283 23.5101C40.6606 23.4177 40.4724 23.3681 40.2807 23.3658C39.6922 23.3658 39.4005 23.9304 39.4005 24.8196C39.4005 25.7089 39.7375 26.1735 40.3008 26.1735C40.4856 26.1674 40.6665 26.1191 40.8296 26.0325Z" fill="white"/>
<path d="M37.4743 24.4949V26.5582L38.0024 26.5532V24.4C38.0024 23.3858 37.5044 22.9462 36.755 22.9462C36.5585 22.9381 36.3631 22.9796 36.1872 23.067C36.0113 23.1544 35.8606 23.2847 35.7492 23.4458V23.0161H35.2462V26.5582H35.7492V24.4949C35.7492 23.7205 36.066 23.3908 36.6343 23.3908C37.2026 23.3908 37.4743 23.7305 37.4743 24.4949Z" fill="white"/>
<path d="M33.4507 23.0261H33.9536V26.5582H33.4507V23.0261Z" fill="white"/>
<path d="M33.9636 21.7728C34.0295 21.8411 34.0657 21.9324 34.0643 22.0269C34.0643 22.1201 34.0274 22.2096 33.9615 22.276C33.8956 22.3424 33.8061 22.3803 33.7123 22.3816C33.6162 22.3816 33.5241 22.3437 33.4562 22.2763C33.3883 22.2088 33.3501 22.1173 33.3501 22.0219C33.3501 21.9265 33.3883 21.835 33.4562 21.7676C33.5241 21.7001 33.6162 21.6622 33.7123 21.6622C33.8074 21.6648 33.8977 21.7046 33.9636 21.7728Z" fill="white"/>
<path d="M32.0224 23.3908C32.2092 23.3857 32.3939 23.4324 32.5555 23.5257L32.6863 23.0461C32.5086 22.9775 32.3183 22.9469 32.128 22.9562C31.9506 22.958 31.7766 23.0049 31.6225 23.0924C31.4685 23.1798 31.3395 23.3049 31.2478 23.4558V23.0161H30.7449V26.5332H31.2478V24.4599C31.2478 23.7855 31.5195 23.3908 32.0224 23.3908Z" fill="white"/>
<path fill-rule="evenodd" clip-rule="evenodd" d="M29.5378 24.0703V26.5332L29.0299 26.5382V26.1086C28.8914 26.2661 28.7206 26.3923 28.5288 26.4784C28.337 26.5646 28.1289 26.6089 27.9184 26.6082C27.7652 26.6228 27.6108 26.6036 27.4659 26.5521C27.3211 26.5006 27.1894 26.418 27.0804 26.3102C26.9713 26.2024 26.8876 26.072 26.8351 25.9283C26.7826 25.7847 26.7626 25.6313 26.7767 25.4791C26.7767 24.6847 27.4355 24.345 28.1397 24.345C28.4487 24.3406 28.7542 24.4109 29.0299 24.5499V24.1302C29.0468 24.0249 29.0385 23.9172 29.0057 23.8156C28.973 23.7141 28.9166 23.6217 28.8412 23.5458C28.7658 23.4699 28.6735 23.4127 28.5717 23.3789C28.4699 23.345 28.3616 23.3354 28.2554 23.3508C27.9129 23.3498 27.5769 23.4432 27.2847 23.6206L27.0986 23.211C27.4661 23.0198 27.8756 22.922 28.2906 22.9262C29.0349 22.9262 29.5378 23.2509 29.5378 24.0703ZM28.596 26.0538C28.7709 25.9618 28.9213 25.8299 29.0349 25.6689L29.055 24.9545C28.7751 24.8028 28.458 24.7319 28.1397 24.7497C27.6166 24.7497 27.3048 24.9995 27.3048 25.4441C27.2907 25.5434 27.2994 25.6446 27.3303 25.7401C27.3611 25.8356 27.4134 25.9229 27.4831 25.9955C27.5528 26.068 27.6381 26.124 27.7326 26.1592C27.8271 26.1943 27.9285 26.2078 28.029 26.1985C28.2269 26.1955 28.4212 26.1459 28.596 26.0538Z" fill="white"/>
<path d="M25.4297 23.4573C25.5766 23.5182 25.7096 23.6077 25.8211 23.7205L26.0726 23.3558C25.7639 23.0796 25.3614 22.9297 24.946 22.9362C24.2217 22.9362 23.4372 23.5607 23.4372 24.7947C23.4372 26.0286 24.1664 26.6182 24.946 26.6182C25.162 26.6213 25.3761 26.5783 25.574 26.4921C25.7718 26.4059 25.9487 26.2785 26.0927 26.1186L25.7859 25.7938C25.6837 25.9107 25.5579 26.0048 25.4166 26.0703C25.2754 26.1357 25.1219 26.1709 24.9661 26.1735C24.3324 26.1735 23.9603 25.624 23.9603 24.7447C23.9603 23.8654 24.4079 23.3658 24.9661 23.3658C25.1253 23.3653 25.2829 23.3964 25.4297 23.4573Z" fill="white"/>
</svg>
